<svg width="200" height="209" viewBox="0 0 200 209" fill="none" xmlns="http://www.w3.org/2000/svg">
<path d="M24.25 5.5C37.3817 5.5 48 15.8121 48 28.5C48 41.1879 37.3817 51.5 24.25 51.5C11.1183 51.5 0.5 41.1879 0.5 28.5C0.5 15.8121 11.1183 5.5 24.25 5.5Z" fill="#C0A988" stroke="black"/>
<path d="M169.75 5.5C182.882 5.5 193.5 15.8121 193.5 28.5C193.5 41.1879 182.882 51.5 169.75 51.5C156.618 51.5 146 41.1879 146 28.5C146 15.8121 156.618 5.5 169.75 5.5Z" fill="#C0A988" stroke="black"/>
<path d="M169.75 18.66C171.764 18.66 173.818 18.6602 175.737 18.8768C177.657 19.0935 179.398 19.5229 180.796 20.3524C182.178 21.1727 183.246 22.3961 183.818 24.2557C184.395 26.1321 184.476 28.6861 183.809 32.1659L183.8 32.2127V32.2596C183.8 39.756 177.524 45.8602 169.75 45.8602C161.975 45.8601 155.7 39.7559 155.7 32.2596C155.7 24.7635 161.976 18.6601 169.75 18.66Z" fill="#8C7451" stroke="black"/>
<path d="M10.2002 32.2215L10.1943 32.1825C9.65116 28.7011 9.79056 26.1428 10.3916 24.2606C10.9876 22.3941 12.0439 21.1697 13.3955 20.3504C14.7618 19.5223 16.4548 19.0933 18.334 18.8768C20.2129 18.6604 22.235 18.66 24.25 18.66C32.0244 18.66 38.2996 24.7634 38.2998 32.2596C38.2998 39.756 32.0245 45.8602 24.25 45.8602C16.4755 45.8602 10.2002 39.756 10.2002 32.2596V32.2215Z" fill="#8C7451" stroke="black"/>
<path d="M100.001 14C152.178 14.0002 189.662 52.2592 196.504 104.065C199.979 130.374 188.932 153.971 170.461 171.008C151.986 188.049 126.106 198.5 100.001 198.5C47.7363 198.5 -0.957953 159.173 5.49661 104.059C8.73563 76.4024 19.3275 53.892 35.6079 38.2988C51.8854 22.7087 73.8834 14 100.001 14Z" fill="#E2D1B7" stroke="black"/>
<path d="M50 62.0368C62.5906 56.5888 69.6545 56.775 82.2651 64.8597" stroke="#8C7451" stroke-width="2"/>
<path d="M117 62.0368C129.591 56.5888 136.655 56.775 149.265 64.8597" stroke="#9E8868" stroke-width="2"/>
<path d="M100.5 112.5C113.247 112.5 124.767 116.223 133.088 122.218C141.409 128.213 146.5 136.451 146.5 145.5C146.5 154.549 141.409 162.787 133.088 168.782C124.767 174.777 113.247 178.5 100.5 178.5C87.7526 178.5 76.2328 174.777 67.9121 168.782C59.5907 162.787 54.5 154.549 54.5 145.5C54.5 136.451 59.5907 128.213 67.9121 122.218C76.2328 116.223 87.7526 112.5 100.5 112.5Z" fill="#C0A988" stroke="black"/>
<path d="M105.199 155.31C90.7272 157.708 83.2579 155.874 71.4782 145" stroke="black" stroke-width="2"/>
<path d="M104.57 123.54C105.86 123.484 107.02 123.469 107.997 123.616C108.973 123.763 109.703 124.062 110.194 124.581C110.679 125.093 111 125.893 111 127.192C111 129.787 109.71 132.288 107.729 134.149C105.747 136.011 103.115 137.192 100.5 137.192C97.8811 137.192 95.1204 136.007 93.0107 134.139C90.9004 132.27 89.5 129.772 89.5 127.192C89.5 125.905 89.8456 125.109 90.3701 124.595C90.9075 124.068 91.7046 123.764 92.749 123.616C93.7917 123.468 95.0166 123.484 96.3525 123.54C97.6722 123.596 99.1055 123.692 100.5 123.692C101.895 123.692 103.297 123.596 104.57 123.54Z" fill="#191D1C" stroke="black"/>
<line x1="100.5" y1="138" x2="100.5" y2="143" stroke="black"/>
<circle cx="65" cy="97" r="14.5" fill="#4A727F" stroke="black"/>
<circle cx="135" cy="97" r="14.5" fill="#4A727F" stroke="black"/>
<circle cx="135" cy="97" r="9.5" fill="#191D1C" stroke="black"/>
<circle cx="65" cy="97" r="9.5" fill="#191D1C" stroke="black"/>
</svg>
