<svg viewBox="0 0 24 24" fill="none" xmlns="http://www.w3.org/2000/svg">
  <path d="M12 2C10.5 2 9 2.75 9 4.5C9 5.5 9.5 6 8.5 7C7.5 8 7 8.5 7 10C7 11.5 6.5 12.5 6.5 14C6.5 15.5 7.5 17 9 18M12 2C13.5 2 15 2.75 15 4.5C15 5.5 14.5 6 15.5 7C16.5 8 17 8.5 17 10C17 11.5 17.5 12.5 17.5 14C17.5 15.5 16.5 17 15 18" stroke="currentColor" stroke-width="1.5" stroke-linecap="round" stroke-linejoin="round"/>
  <path d="M9 18C8 18.5 7 19.5 7 21C7 22 8 23 9 23H15C16 23 17 22 17 21C17 19.5 16 18.5 15 18" stroke="currentColor" stroke-width="1.5" stroke-linecap="round" stroke-linejoin="round"/>
</svg>
